<?xml version="1.0" encoding="UTF-8"?>
<svg width="246px" height="434px" viewBox="0 0 246 434" version="1.1" xmlns="http://www.w3.org/2000/svg" xmlns:xlink="http://www.w3.org/1999/xlink">
    <title>smartphone-call 2</title>
    <g id="Page-1" stroke="none" stroke-width="1" fill="none" fill-rule="evenodd">
        <g id="smartphone-call-2" fill="#FFFFFF" fill-rule="nonzero">
            <g id="smartphone-call">
                <path d="M217.3976,0 L28.6024002,0 C12.8734999,0 0,13.1812 0,29.3136 L0,404.674 C0,420.8064 12.8734999,434 28.6024002,434 L217.3976,434 C233.1265,434 246,420.8312 246,404.6864 L246,29.3136 C246,13.1812 233.1265,0 217.3976,0 Z M92.8005115,21.1296 L153.199488,21.1296 C155.111155,21.1296 156.659847,22.7168 156.659847,24.6884 C156.659847,26.6476 155.111155,28.2348 153.199488,28.2348 L92.8005115,28.2348 C90.8888452,28.2348 89.3401535,26.6476 89.3401535,24.6884 C89.3401535,22.7168 90.8888452,21.1296 92.8005115,21.1296 Z M123,419.3432 C115.099252,419.3432 108.6988,412.7836 108.6988,404.674 C108.6988,396.5644 115.099252,390.0172 123,390.0172 C130.900748,390.0172 137.3012,396.5644 137.3012,404.674 C137.3012,412.7836 130.900748,419.3432 123,419.3432 Z M226.096892,379.75 L19.9031084,379.75 L19.9031084,46.4876 L226.096892,46.4876 L226.096892,379.75 Z" id="Shape"></path>
            </g>
        </g>
    </g>
</svg>